<?xml version="1.0" encoding="UTF-8"?>
<svg fill="none" viewBox="0 0 20 20" xmlns="http://www.w3.org/2000/svg">
<path d="m2.5373 9.7293c0 4.0587 2.9427 6.824 6.248 7.396 0.08991 0.0156 0.17588 0.0488 0.25298 0.0976s0.14384 0.1123 0.1964 0.1869 0.08991 0.1588 0.10992 0.2478c0.02001 0.0891 0.02229 0.1812 0.0067 0.2711-0.01558 0.0899-0.04872 0.1758-0.09753 0.253-0.0488 0.0771-0.11232 0.1438-0.18691 0.1964-0.0746 0.0525-0.15882 0.0899-0.24785 0.1099s-0.18113 0.0223-0.27104 0.0067c-3.8813-0.672-7.4-3.944-7.4-8.7654 0-2.0493 0.932-3.66 2.02-4.884 0.78-0.87733 1.672-1.5907 2.3893-2.136h-2.1813c-0.17681 0-0.34638-0.07024-0.47141-0.19526-0.12502-0.12503-0.19526-0.2946-0.19526-0.47141s0.07024-0.34638 0.19526-0.4714c0.12503-0.12502 0.2946-0.19526 0.47141-0.19526h4c0.17681 0 0.34638 0.07024 0.4714 0.19526 0.12503 0.12502 0.19527 0.29459 0.19527 0.4714v4c0 0.17681-0.07024 0.34638-0.19527 0.47141-0.12502 0.12502-0.29459 0.19526-0.4714 0.19526s-0.34638-0.07024-0.47141-0.19526c-0.12502-0.12503-0.19526-0.2946-0.19526-0.47141v-2.4613l-0.00133 0.00267c-0.76267 0.57333-1.6933 1.276-2.5 2.184-0.95333 1.072-1.6707 2.368-1.6707 3.96v0.00133zm14.811 0.54136c0-4.016-2.88-6.764-6.1426-7.3774-0.091-0.01543-0.1779-0.04881-0.2558-0.0982s-0.1452-0.1138-0.1979-0.18947c-0.0528-0.07567-0.0899-0.16109-0.1093-0.25126-0.0194-0.09018-0.0206-0.18331-0.0036-0.27397 0.017-0.09065 0.0519-0.17701 0.1026-0.25405 0.0508-0.07703 0.1163-0.14318 0.1929-0.19461 0.0766-0.05142 0.1626-0.08708 0.2531-0.1049s0.1836-0.01743 0.274 0.00113c3.832 0.72 7.276 3.9733 7.276 8.7427 0 2.0493-0.932 3.6586-2.02 4.884-0.78 0.8773-1.672 1.5906-2.3894 2.136h2.1814c0.1768 0 0.3464 0.0702 0.4714 0.1952 0.125 0.1251 0.1952 0.2946 0.1952 0.4714 0 0.1769-0.0702 0.3464-0.1952 0.4714-0.125 0.1251-0.2946 0.1953-0.4714 0.1953h-4c-0.1768 0-0.3464-0.0702-0.4714-0.1953-0.125-0.125-0.1953-0.2945-0.1953-0.4714v-4c0-0.1768 0.0703-0.3463 0.1953-0.4714 0.125-0.125 0.2946-0.1952 0.4714-0.1952s0.3464 0.0702 0.4714 0.1952c0.125 0.1251 0.1952 0.2946 0.1952 0.4714v2.46h0.0027c0.7613-0.576 1.6933-1.2773 2.4987-2.1866 0.9533-1.0707 1.6706-2.3667 1.6706-3.96z" clip-rule="evenodd" fill="#8D8D8D" fill-rule="evenodd"/>
</svg>
